<svg width="31" height="29" viewBox="0 0 31 29" fill="none" xmlns="http://www.w3.org/2000/svg">
<path d="M30.4905 10.8513C30.3958 10.5769 30.2235 10.3359 29.9945 10.1575C29.7655 9.97912 29.4897 9.871 29.2005 9.84626L20.6655 8.60126L16.8405 0.846259C16.7177 0.592652 16.5259 0.378772 16.2871 0.229119C16.0484 0.0794663 15.7723 9.38177e-05 15.4905 9.38177e-05C15.2087 9.38177e-05 14.9326 0.0794663 14.6939 0.229119C14.4551 0.378772 14.2633 0.592652 14.1405 0.846259L10.3155 8.58626L1.78051 9.84626C1.50289 9.88572 1.2419 10.0022 1.02714 10.1825C0.812376 10.3628 0.652452 10.5997 0.565512 10.8663C0.485929 11.1268 0.478787 11.404 0.544853 11.6683C0.610919 11.9326 0.747698 12.1738 0.940512 12.3663L7.13551 18.3663L5.63551 26.8863C5.58196 27.1675 5.61 27.4581 5.71632 27.7239C5.82264 27.9897 6.00279 28.2196 6.23551 28.3863C6.46234 28.5484 6.72987 28.6441 7.00808 28.6627C7.28629 28.6812 7.56417 28.6219 7.81051 28.4913L15.4905 24.4863L23.1405 28.5063C23.351 28.625 23.5888 28.687 23.8305 28.6863C24.1483 28.6874 24.4581 28.5876 24.7155 28.4013C24.9482 28.2346 25.1284 28.0047 25.2347 27.7389C25.341 27.4731 25.3691 27.1825 25.3155 26.9013L23.8155 18.3813L30.0105 12.3813C30.2271 12.1978 30.3871 11.9566 30.4721 11.6858C30.5571 11.415 30.5635 11.1256 30.4905 10.8513Z" fill="#9771FD"/>
</svg>
